<svg xmlns="http://www.w3.org/2000/svg" xmlns:xlink="http://www.w3.org/1999/xlink" viewBox="0 0 484.89 469.85"><defs><style>.cls-1,.cls-12,.cls-14{fill:#fff;}.cls-2{isolation:isolate;}.cls-13,.cls-3{fill:none;}.cls-3,.cls-8,.cls-9{stroke:#fff;}.cls-13,.cls-3,.cls-8,.cls-9{stroke-miterlimit:10;}.cls-3{stroke-width:30px;}.cls-4{fill:#d1312e;}.cls-5{opacity:0.6;}.cls-14,.cls-5{mix-blend-mode:overlay;}.cls-6{opacity:0.1;}.cls-11,.cls-6{mix-blend-mode:multiply;}.cls-7{mask:url(#mask);}.cls-10,.cls-8{fill:#1ac3e5;}.cls-8,.cls-9{stroke-width:20px;}.cls-9{fill:#f2f2f2;opacity:0.5;}.cls-11{opacity:0.3;fill:url(#radial-gradient);}.cls-12,.cls-14{opacity:0.2;}.cls-13{stroke:#138ba3;stroke-width:10px;}</style><mask id="mask" x="73.05" y="13.51" width="391.35" height="395.39" maskUnits="userSpaceOnUse"><g transform="translate(-158.78 -164.86)"><circle class="cls-1" cx="434.9" cy="373.67" r="164.42"/></g></mask><radialGradient id="radial-gradient" cx="496.32" cy="513.8" r="259.24" gradientTransform="matrix(-0.18, -1.06, 0.9, -0.15, 128.88, 1123.56)" gradientUnits="userSpaceOnUse"><stop offset="0" stop-color="#fff"/><stop offset="0.26" stop-color="#b4b4b4"/><stop offset="0.73" stop-color="#343434"/><stop offset="0.94"/><stop offset="1" stop-color="#fff"/></radialGradient></defs><g class="cls-2"><g id="Layer_20" data-name="Layer 20"><g id="Layer_28" data-name="Layer 28"><circle class="cls-3" cx="276.42" cy="208.47" r="193.47"/><rect class="cls-1" x="240.83" y="501.1" width="73.64" height="29.46" transform="translate(287.29 -210.1) rotate(45)"/><path class="cls-1" d="M147.1,602.2h73.64a0,0,0,0,1,0,0v0A14.73,14.73,0,0,1,206,616.93H161.83A14.73,14.73,0,0,1,147.1,602.2v0A0,0,0,0,1,147.1,602.2Z" transform="translate(326.12 -116.37) rotate(45)"/><rect class="cls-4" x="176.63" y="510.07" width="103.1" height="110.46" rx="20.43" transform="translate(307.79 -160.63) rotate(45)"/><path class="cls-5" d="M194.33,630.39a14.73,14.73,0,0,0,20.83,0l-1.4-1.4a16.71,16.71,0,0,0,23.64,0l54.47-54.47a16.71,16.71,0,0,0,0-23.64l1.4,1.4,20.83-20.83-20.83-20.83L183.92,620Z" transform="translate(-158.78 -164.86)"/><path class="cls-6" d="M194.33,630.39a14.73,14.73,0,0,0,20.83,0l-1.4-1.4a16.71,16.71,0,0,0,23.64,0l54.47-54.47a16.71,16.71,0,0,0,0-23.64l1.4,1.4,20.83-20.83-20.83-20.83L183.92,620Z" transform="translate(-158.78 -164.86)"/></g><g id="Layer_13_copy" data-name="Layer 13 copy"><g class="cls-7"><g id="Layer_5_copy" data-name="Layer 5 copy"><circle class="cls-8" cx="427.5" cy="374.04" r="185.67" transform="translate(-298.05 246.99) rotate(-45)"/><circle class="cls-9" cx="279.82" cy="212.58" r="171.2"/><polyline class="cls-1" points="451.13 215.47 112.62 215.47 112.62 379.88 451.13 379.88 451.13 215.47"/><path class="cls-10" d="M520.51,464.49A79.46,79.46,0,0,0,441,385a69.54,69.54,0,1,1,28.37-133,89.39,89.39,0,0,0-165.19,23.74h-32l-29.8,129.13L331.78,544l79.46,29.8,59.6-29.8-.69-5.52A79.48,79.48,0,0,0,520.51,464.49Z" transform="translate(-158.78 -164.86)"/><path class="cls-11" d="M520.51,464.49A79.46,79.46,0,0,0,441,385a69.54,69.54,0,1,1,28.37-133,89.39,89.39,0,0,0-165.19,23.74h-32l-29.8,129.13L331.78,544l79.46,29.8,59.6-29.8-.69-5.52A79.48,79.48,0,0,0,520.51,464.49Z" transform="translate(-158.78 -164.86)"/><circle class="cls-1" cx="497.1" cy="315.04" r="45.94" transform="translate(-218 342.16) rotate(-51.4)"/><g id="Layer_12_copy" data-name="Layer 12 copy"><path class="cls-1" d="M285.71,363.77a6.43,6.43,0,0,0-8.8-2.31l-3.29,2.19a6.82,6.82,0,0,0-3,3.85,6.61,6.61,0,0,0,.65,5,6.43,6.43,0,0,0,8.8,2.3l3.29-2.19a6.83,6.83,0,0,0,3-3.85A6.58,6.58,0,0,0,285.71,363.77Z" transform="translate(-158.78 -164.86)"/><path class="cls-1" d="M285.64,351.55a5.68,5.68,0,0,0-5.59,5.59v8.78a5.59,5.59,0,0,0,11.18,0v-8.78A5.64,5.64,0,0,0,285.64,351.55Z" transform="translate(-158.78 -164.86)"/><path class="cls-1" d="M289.82,343.36c-1.34-2.09-4.65-3.51-6.92-1.82l-2.78,2.08c-2.28,1.71-3.17,4.25-1.81,6.92.62,1.22,1.24,2.44,1.87,3.66A5.1,5.1,0,0,0,287.1,356a5.15,5.15,0,0,0,1.93-6.63,4.58,4.58,0,0,0,1.3-2.14A5.09,5.09,0,0,0,289.82,343.36Z" transform="translate(-158.78 -164.86)"/><path class="cls-1" d="M290,327.49a5.6,5.6,0,0,0-5.5,5.5v7.68a5.5,5.5,0,1,0,11,0V333A5.56,5.56,0,0,0,290,327.49Z" transform="translate(-158.78 -164.86)"/><path class="cls-1" d="M305.66,324.82a6,6,0,0,0-7.34-4.16,6.55,6.55,0,0,0-3.56,2.74l-2.19,3.29a6,6,0,0,0,6.73,8.76,6.57,6.57,0,0,0,3.56-2.74l2.2-3.29A6.06,6.06,0,0,0,305.66,324.82Z" transform="translate(-158.78 -164.86)"/><path class="cls-1" d="M314.09,318.33a5.72,5.72,0,0,0-2.57-3.35,5.64,5.64,0,0,0-4.32-.56l-3.29,1.1a5.91,5.91,0,0,0-3.35,2.57,5.77,5.77,0,0,0-.57,4.32,5.7,5.7,0,0,0,2.58,3.35,5.63,5.63,0,0,0,4.32.56l3.29-1.1a5.94,5.94,0,0,0,3.35-2.57A5.72,5.72,0,0,0,314.09,318.33Z" transform="translate(-158.78 -164.86)"/><path class="cls-1" d="M314.18,305.28h-4.39a4.66,4.66,0,0,0,0,9.32h4.39a4.66,4.66,0,0,0,0-9.32Z" transform="translate(-158.78 -164.86)"/><path class="cls-1" d="M329.66,289.52a4.67,4.67,0,0,0-6.27,1.65q-1.65,2.74-3.29,5.49a4.58,4.58,0,1,0,7.91,4.62q1.65-2.75,3.29-5.49A4.63,4.63,0,0,0,329.66,289.52Z" transform="translate(-158.78 -164.86)"/><path class="cls-1" d="M343.09,282.5c-2.31-1.22-5.7-.72-7,1.83-1.1,2.19-2.19,4.39-3.29,6.58-1.19,2.38-.71,5.63,1.82,7,2.31,1.22,5.7.71,7-1.83,1.1-2.19,2.2-4.39,3.29-6.58C346.1,287.09,345.63,283.84,343.09,282.5Z" transform="translate(-158.78 -164.86)"/><path class="cls-1" d="M362.51,275.87c-2.69-2.47-6.17-2.25-8.87,0l-6.58,5.49c-2.54,2.11-2.35,6.73,0,8.88,2.69,2.47,6.17,2.25,8.87,0l6.58-5.49C365.05,282.64,364.86,278,362.51,275.87Z" transform="translate(-158.78 -164.86)"/><path class="cls-1" d="M382.18,265.73a3.65,3.65,0,0,1-2.08-2.81c-1.12-5.05-9.34-4-9.08,1.23l.45,8.81-5.83-.75c-2.48-.32-4.62,2.35-4.62,4.62,0,2.77,2.13,4.31,4.62,4.63l10.72,1.37c2.4.31,4.74-2.37,4.63-4.62l-.21-4C384.31,273.3,386.25,268,382.18,265.73Z" transform="translate(-158.78 -164.86)"/><path class="cls-1" d="M385.52,258.1l-3.29-.08a4.44,4.44,0,1,0,0,8.88l3.29.08a4.48,4.48,0,0,0,4.44-4.44A4.53,4.53,0,0,0,385.52,258.1Z" transform="translate(-158.78 -164.86)"/><path class="cls-1" d="M396.89,253.64a4.53,4.53,0,0,0-6.11-1.61l-7.61,4.52a4.47,4.47,0,0,0,4.51,7.72l7.61-4.52A4.54,4.54,0,0,0,396.89,253.64Z" transform="translate(-158.78 -164.86)"/><path class="cls-1" d="M410.27,249.5a4.61,4.61,0,0,0-5.78-1.83c-1.81-2.5-6.17-3.29-7.79,0-1,2.07-2,4.13-3,6.2a4.63,4.63,0,0,0,1.62,6.18c2,1.16,5.1.58,6.18-1.62l.24-.5a3.91,3.91,0,0,0,3.9-.25l3-2A4.63,4.63,0,0,0,410.27,249.5Z" transform="translate(-158.78 -164.86)"/><path class="cls-1" d="M414.34,244.18a5.71,5.71,0,0,0-6,2.19,5.58,5.58,0,0,0-5.2,4.08,5.69,5.69,0,0,0,3.9,6.86,9.23,9.23,0,0,0,11.2-6.27A5.62,5.62,0,0,0,414.34,244.18Z" transform="translate(-158.78 -164.86)"/><path class="cls-1" d="M427.41,243.7c-2.25-1.32-4.62-.34-6,1.58l-6.52,8.82c-1.42,1.92-.32,4.92,1.58,6,2.24,1.31,4.61.34,6-1.58l6.53-8.82C430.4,247.81,429.3,244.81,427.41,243.7Z" transform="translate(-158.78 -164.86)"/><path class="cls-1" d="M445.7,246.47a4.06,4.06,0,0,0-1.34-.88v-.05c-.32-5.8-8.11-5.51-8.81,0-.37,3-4.23,3.72-6.47,2.82s-4.81,1-5.42,3.07c-.71,2.51.89,4.53,3.08,5.42a11.94,11.94,0,0,0,11-1.05c1.68,1.43,4.16,1.85,5.74-.2l2.25-2.9C447.16,250.8,447.51,248.32,445.7,246.47Z" transform="translate(-158.78 -164.86)"/><path class="cls-1" d="M458,244.45a6.63,6.63,0,0,0-6.61-1.32,5.76,5.76,0,0,0-5.72-1.54,6.06,6.06,0,0,0-4.15,7.31,9.62,9.62,0,0,0,7.05,6.68c3.27.73,7.23,0,9.43-2.72a6.4,6.4,0,0,0,1.74-4.2A6.09,6.09,0,0,0,458,244.45Z" transform="translate(-158.78 -164.86)"/><path class="cls-1" d="M474.62,239.6c-1.69-3.77-7.52-2.48-8.49,1.11l-.67,2.5a4.78,4.78,0,0,0-5.45,1.66c-5.45-1.42-7.69,7.22-2.14,9a8.31,8.31,0,0,0,7-.91,9.25,9.25,0,0,0,7.93-2.15C476,247.87,476.35,243.45,474.62,239.6Z" transform="translate(-158.78 -164.86)"/><path class="cls-1" d="M464.33,238.25a5.47,5.47,0,0,0-2.52-3.28l-2.19-1.1a5.87,5.87,0,0,0-4.23-.55,5.48,5.48,0,0,0-3.82,6.74,5.46,5.46,0,0,0,2.51,3.28l2.2,1.1a5.85,5.85,0,0,0,4.22.55,5.6,5.6,0,0,0,3.28-2.52A5.52,5.52,0,0,0,464.33,238.25Z" transform="translate(-158.78 -164.86)"/><path class="cls-1" d="M459.69,234.73l-5.48-4.4c-1.76-1.41-4.41-1.85-6.11,0-1.43,1.57-1.87,4.59,0,6.1l5.49,4.4c1.75,1.41,4.4,1.84,6.1,0C461.13,239.26,461.57,236.23,459.69,234.73Z" transform="translate(-158.78 -164.86)"/><path class="cls-1" d="M452.4,231.62a5.62,5.62,0,0,0-1.45-2.48l-1.14-.88a5.52,5.52,0,0,0-2.84-.76h-1.09a6.24,6.24,0,0,0-4,1.64,6.32,6.32,0,0,0-1.65,4c.07.5.14,1,.2,1.49a5.66,5.66,0,0,0,1.45,2.49L443,238a5.62,5.62,0,0,0,2.84.76H447a4.24,4.24,0,0,0,2.17-.48A4.31,4.31,0,0,0,451,237.1a6.32,6.32,0,0,0,1.65-4C452.53,232.62,452.46,232.12,452.4,231.62Z" transform="translate(-158.78 -164.86)"/><path class="cls-1" d="M447.26,227.37,441.74,223a5.67,5.67,0,0,0-3.68-1.53,5.31,5.31,0,0,0-3.69,1.53c-1.73,1.88-2.29,5.57,0,7.38l5.51,4.35a5.7,5.7,0,0,0,3.69,1.53,5.31,5.31,0,0,0,3.69-1.53C449,232.87,449.55,229.18,447.26,227.37Z" transform="translate(-158.78 -164.86)"/><path class="cls-1" d="M440.44,225.31c-.74-2.27-3.22-4-5.66-3.21l-3.3,1.09a4.93,4.93,0,0,0-2.75,2.12,4.73,4.73,0,0,0-.46,3.55c.73,2.26,3.21,4,5.66,3.21l3.29-1.1a4.85,4.85,0,0,0,2.75-2.11A4.73,4.73,0,0,0,440.44,225.31Z" transform="translate(-158.78 -164.86)"/><path class="cls-1" d="M440,225.33h0Z" transform="translate(-158.78 -164.86)"/><path class="cls-1" d="M445.76,228.43a4.57,4.57,0,0,0-5.52-3.14h-.46l-.55-.22-.17-.1a2.11,2.11,0,0,1-.15-.15c-.1-.16-.29-.43-.31-.46a4.53,4.53,0,0,0-6.15-1.61,4.58,4.58,0,0,0-1.61,6.15A10.65,10.65,0,0,0,442.63,234,4.53,4.53,0,0,0,445.76,228.43Z" transform="translate(-158.78 -164.86)"/><path class="cls-1" d="M459.81,235.74l-4.39-2.2a6.24,6.24,0,0,0-4.52-.59,6,6,0,0,0-3.5,2.7c-1.41,2.66-.83,6.56,2.1,8l4.39,2.2a6.24,6.24,0,0,0,4.52.59,6,6,0,0,0,3.51-2.7C463.32,241.1,462.74,237.2,459.81,235.74Z" transform="translate(-158.78 -164.86)"/><path class="cls-1" d="M460.14,241.2c-8,0-8,12.37,0,12.37S468.12,241.2,460.14,241.2Z" transform="translate(-158.78 -164.86)"/><path class="cls-1" d="M422.85,243.36l-8.78,1.1c-2.74.34-5.45,2.2-5.31,5.31.12,2.59,2.36,5.68,5.31,5.31l8.78-1.09c2.75-.35,5.45-2.2,5.31-5.31C428.05,246.09,425.81,243,422.85,243.36Z" transform="translate(-158.78 -164.86)"/><path class="cls-1" d="M401.28,251.94c-9.35-2.63-18.45-.23-27.58,2.07-8.42,2.12-16.77,3.9-23.38,9.89-5.74,5.2,2.77,13.66,8.48,8.48,4.81-4.35,12-5.27,18.08-6.81,7-1.75,14.07-4.08,21.22-2.07C405.54,265.6,408.71,254,401.28,251.94Z" transform="translate(-158.78 -164.86)"/><path class="cls-1" d="M359.17,267c-7.31,0-7.32,11.36,0,11.36S366.5,267,359.17,267Z" transform="translate(-158.78 -164.86)"/><path class="cls-1" d="M363.55,273.89l-15.36-1.14c-5.69-.42-5.66,8.44,0,8.86l15.36,1.13C369.24,283.16,369.21,274.3,363.55,273.89Z" transform="translate(-158.78 -164.86)"/><path class="cls-1" d="M364.82,283.43l-8.78-2.2a4.74,4.74,0,0,0-2.51,9.14l8.78,2.19a4.73,4.73,0,1,0,2.51-9.13Z" transform="translate(-158.78 -164.86)"/><path class="cls-1" d="M370,288c-.84-3-3.79-4.31-6.68-3.79l-12.08,2.17c-2.89.52-4.52,4-3.79,6.68.83,3,3.78,4.31,6.68,3.79l12.07-2.16C369.05,294.14,370.68,290.62,370,288Z" transform="translate(-158.78 -164.86)"/><path class="cls-1" d="M350.91,290.77a5.64,5.64,0,0,0-3.81-1.57h-2.19a5.38,5.38,0,0,0-5.39,5.38,5.45,5.45,0,0,0,1.58,3.8,5.58,5.58,0,0,0,3.81,1.58h2.19a5.56,5.56,0,0,0,3.81-1.58,5.4,5.4,0,0,0,0-7.61Z" transform="translate(-158.78 -164.86)"/><path class="cls-1" d="M328.44,296.38c-6.16,0-6.17,9.57,0,9.57S334.61,296.38,328.44,296.38Z" transform="translate(-158.78 -164.86)"/><path class="cls-1" d="M322.44,300.5,317,299.4c-3.15-.64-6.81.9-7.58,4.3-.7,3.06.92,6.89,4.3,7.57l5.49,1.1c3.15.64,6.8-.9,7.57-4.3C327.44,305,325.82,301.18,322.44,300.5Z" transform="translate(-158.78 -164.86)"/><path class="cls-1" d="M325.11,311.15a7.34,7.34,0,0,0-3.77-2.89l-5.49-2.2a6.29,6.29,0,0,0-4.85.64,6.29,6.29,0,0,0-2.26,8.62,7.35,7.35,0,0,0,3.76,2.9l5.49,2.19a6.32,6.32,0,0,0,4.86-.64,6.31,6.31,0,0,0,2.26-8.62Z" transform="translate(-158.78 -164.86)"/><path class="cls-1" d="M315.23,310a6.17,6.17,0,0,0-4.35-1.79,6.42,6.42,0,0,0-4.34,1.79l-2.19,2.2a6.33,6.33,0,0,0-1.8,4.34,6.15,6.15,0,0,0,6.14,6.14,6.44,6.44,0,0,0,4.34-1.8l2.2-2.2a6.16,6.16,0,0,0,0-8.68Z" transform="translate(-158.78 -164.86)"/><path class="cls-1" d="M298.6,323.13a4.88,4.88,0,0,0-6.56,1.72l-3.45,6.5a4.8,4.8,0,1,0,8.28,4.84l3.45-6.5A4.87,4.87,0,0,0,298.6,323.13Z" transform="translate(-158.78 -164.86)"/><path class="cls-1" d="M290,341.85a4.38,4.38,0,0,0-4.31,4.31v4.39a4.32,4.32,0,1,0,8.63,0v-4.39A4.36,4.36,0,0,0,290,341.85Z" transform="translate(-158.78 -164.86)"/><path class="cls-1" d="M288.16,355.65c-.75-2.32-3.52-4.49-6.1-3.46l-5.48,2.2a5.45,5.45,0,0,0-3,2.28,5,5,0,0,0-.49,3.81c.75,2.33,3.51,4.5,6.09,3.47l5.49-2.2a5.43,5.43,0,0,0,3-2.28A5,5,0,0,0,288.16,355.65Z" transform="translate(-158.78 -164.86)"/><path class="cls-1" d="M283.53,365.35l-4.36-2.25c-2.26-1.18-5.4-.66-6.67,1.75-1.19,2.24-.67,5.42,1.75,6.67l4.36,2.26c2.26,1.17,5.4.66,6.67-1.75C286.46,369.79,286,366.61,283.53,365.35Z" transform="translate(-158.78 -164.86)"/><path class="cls-1" d="M283.45,365.22h-6.59a6.38,6.38,0,0,0,0,12.75h6.59a6.38,6.38,0,0,0,0-12.75Z" transform="translate(-158.78 -164.86)"/><path class="cls-1" d="M286.17,369.1a4,4,0,0,0-.65-1.19,5.64,5.64,0,0,0-2.53-3.25l-1.32-.56a5.71,5.71,0,0,0-3,0,7.82,7.82,0,0,0-1.56.62,8,8,0,0,0-1.27,1l-.08.09a9.92,9.92,0,0,0-.89,1.16,7.3,7.3,0,0,0-.33.75,7.53,7.53,0,0,0-.31.76c-.06.25-.1.76-.11.84a6,6,0,0,0-.11.81,8.69,8.69,0,0,0,.22,1.7c0,.08,0,.16.06.25a9.86,9.86,0,0,0,.65,1.54l.14.23a10.25,10.25,0,0,0,1,1.28l.1.09a10.39,10.39,0,0,0,1.18.92,5.58,5.58,0,0,0,.85.39,3.71,3.71,0,0,0,1.58.42,5.1,5.1,0,0,0,.84.11,13.22,13.22,0,0,0,1.52-.21,7.5,7.5,0,0,0,1.52-.63,5.81,5.81,0,0,0,1.31-1,5.72,5.72,0,0,0,1.63-3.93A4.19,4.19,0,0,0,286.17,369.1Z" transform="translate(-158.78 -164.86)"/><path class="cls-1" d="M297.75,355.85c-1.5-2.56-4.39-2.91-6.89-1.81a4.22,4.22,0,0,1-3.74-.59c-2.09-1.74-5.07-2.05-7.12,0-1.79,1.79-2.1,5.37,0,7.12a14.64,14.64,0,0,0,15.94,2.17C298.43,361.64,299,358,297.75,355.85Z" transform="translate(-158.78 -164.86)"/><path class="cls-1" d="M301.7,341.77a5.33,5.33,0,0,0-6.92,1.54l-.06.07-.05,0h0c-.21-.07-.29-.09-.22-.06-2.38-.87-5.31-.31-6.6,2.12s-.75,5.9,1.89,7.19a10.67,10.67,0,0,0,13.89-3.7A5.29,5.29,0,0,0,301.7,341.77Z" transform="translate(-158.78 -164.86)"/><path class="cls-1" d="M312.08,338.73a4.55,4.55,0,0,0-5.56-3.16,4.53,4.53,0,0,1-5.4-1.55c-1.59-1.86-4.76-1.64-6.4,0a4.62,4.62,0,0,0,0,6.39,13.51,13.51,0,0,0,14.2,3.88A4.61,4.61,0,0,0,312.08,338.73Z" transform="translate(-158.78 -164.86)"/><path class="cls-1" d="M314.35,336.58a6.54,6.54,0,0,0-3.57-2.85,6.34,6.34,0,0,0-8.36-1.77,6.71,6.71,0,0,0-2.92,3.81,8.49,8.49,0,0,0,3.73,9.32,8.22,8.22,0,0,0,8.83.2,6.73,6.73,0,0,0,2.93-3.81A6.5,6.5,0,0,0,314.35,336.58Z" transform="translate(-158.78 -164.86)"/><path class="cls-1" d="M311.34,328a5.74,5.74,0,0,0-7.68-2l-3.84,2.18a5.67,5.67,0,0,0-2,7.67l1.44,2.35c1.54,2.5,5.09,3.68,7.67,2a6,6,0,0,0,2.77-4.76A5.67,5.67,0,0,0,311.34,328Z" transform="translate(-158.78 -164.86)"/><path class="cls-1" d="M324.71,322.52c-1-3.57-4.44-5.07-7.84-4.45l-12.07,2.19c-3.39.62-5.3,4.73-4.45,7.84,1,3.57,4.44,5.07,7.84,4.45l12.07-2.19C323.65,329.74,325.57,325.62,324.71,322.52Z" transform="translate(-158.78 -164.86)"/><path class="cls-1" d="M326,319.26a8.52,8.52,0,0,0-2.59-2.62,8.36,8.36,0,0,0-3.76-1.13,5.28,5.28,0,0,0-3.75,1.56,5.31,5.31,0,0,0,0,7.5l.6.46a5.62,5.62,0,0,0,.63,1.81,5.33,5.33,0,0,0,7.27,1.91,5.9,5.9,0,0,0,2.43-3.18A7.63,7.63,0,0,0,326,319.26Z" transform="translate(-158.78 -164.86)"/><path class="cls-1" d="M321.15,308.45a5.19,5.19,0,0,0-3.68-1.52,5.47,5.47,0,0,0-3.69,1.52l-2.19,2.2a5.2,5.2,0,0,0,0,7.37,5.26,5.26,0,0,0,3.68,1.53A5.46,5.46,0,0,0,319,318l2.19-2.2a5.2,5.2,0,0,0,0-7.37Z" transform="translate(-158.78 -164.86)"/><path class="cls-1" d="M332,290.47c-1-3-4.26-5.34-7.5-4.26L315,289.38a6.19,6.19,0,0,0-3.64,9l1.92,3.7a6.15,6.15,0,0,0,8.34,2.19,6.21,6.21,0,0,0,2.94-5.2l3.19-1.07C330.79,297,333.08,293.71,332,290.47Z" transform="translate(-158.78 -164.86)"/><path class="cls-1" d="M340.44,286.57c-1.39-2.17-4.51-3.35-6.84-1.79L330.31,287a5.34,5.34,0,0,0-2.3,3,5.13,5.13,0,0,0,.51,3.85c1.39,2.16,4.51,3.34,6.84,1.79l3.29-2.19a5.33,5.33,0,0,0,2.3-3A5.08,5.08,0,0,0,340.44,286.57Z" transform="translate(-158.78 -164.86)"/><path class="cls-1" d="M347.81,280.62c-1.6-2.49-5.39-4-8.08-2.12L332.05,284c-2.51,1.79-4,5.23-2.12,8.08,1.6,2.49,5.39,4,8.08,2.12l7.68-5.49C348.2,286.91,349.65,283.47,347.81,280.62Z" transform="translate(-158.78 -164.86)"/><path class="cls-1" d="M351.49,281.16c-7.38,0-7.39,11.47,0,11.47S358.88,281.16,351.49,281.16Z" transform="translate(-158.78 -164.86)"/><path class="cls-1" d="M363.56,279.24c-7,0-7,10.92,0,10.92S370.61,279.24,363.56,279.24Z" transform="translate(-158.78 -164.86)"/><path class="cls-1" d="M373.44,271.78c-6.73,0-6.75,10.47,0,10.47S380.19,271.78,373.44,271.78Z" transform="translate(-158.78 -164.86)"/><path class="cls-12" d="M324.05,309.2c-8,0-8,12.46,0,12.46S332.08,309.2,324.05,309.2Z" transform="translate(-158.78 -164.86)"/><path class="cls-12" d="M323.13,309.81l-5.51-2.13c-2.2-.85-5,.94-5.52,3.14a4.61,4.61,0,0,0,3.13,5.52l5.51,2.13c2.2.85,5-.94,5.52-3.14A4.61,4.61,0,0,0,323.13,309.81Z" transform="translate(-158.78 -164.86)"/><path class="cls-12" d="M299.86,309.26a4,4,0,0,0-.39-3.37,4.41,4.41,0,0,0-5.92-1.55l-3.16,1.91c-2.69,1.62-2.93,5.91,0,7.47l4,2.16a4.41,4.41,0,0,0,5.93-1.56A4.58,4.58,0,0,0,299.86,309.26Z" transform="translate(-158.78 -164.86)"/><path class="cls-12" d="M319.6,287.37c-2.38-1-5.22,1.05-5.85,3.32-.75,2.72.94,4.87,3.32,5.85a3.86,3.86,0,0,1,1.81,4.6c-.94,2.17-3.54,2.28-5.41,1.54-2.39-.94-5.22,1-5.85,3.32-.74,2.7.92,4.91,3.32,5.85a13.34,13.34,0,0,0,17-7.75C330.41,297.09,326.1,290,319.6,287.37Z" transform="translate(-158.78 -164.86)"/><path class="cls-12" d="M323.1,285.66l-3.29-3.3a6.64,6.64,0,0,0-4.54-1.87,6.55,6.55,0,0,0-4.53,1.87,6.46,6.46,0,0,0-1.87,4.54,6.68,6.68,0,0,0,1.87,4.53l3.3,3.29a6.6,6.6,0,0,0,4.53,1.88,6.42,6.42,0,0,0,6.41-6.41A6.67,6.67,0,0,0,323.1,285.66Z" transform="translate(-158.78 -164.86)"/><path class="cls-12" d="M331,284c-.81-2.5-3.52-4.41-6.2-3.52l-6.59,2.17c-2.5.82-4.39,3.52-3.52,6.2.81,2.49,3.52,4.4,6.2,3.52l6.59-2.18C330,289.41,331.84,286.72,331,284Z" transform="translate(-158.78 -164.86)"/><path class="cls-12" d="M335.08,282.46l-3.29-3.3a4.73,4.73,0,0,0-6.69,6.69l3.29,3.29a4.73,4.73,0,0,0,6.69-6.68Z" transform="translate(-158.78 -164.86)"/><path class="cls-12" d="M345.06,277.66a5.36,5.36,0,0,0-7.2-1.89l-8.78,4.39c-2.54,1.27-3.25,4.86-1.89,7.2a5.37,5.37,0,0,0,7.2,1.88l8.78-4.39C345.71,283.58,346.43,280,345.06,277.66Z" transform="translate(-158.78 -164.86)"/><path class="cls-12" d="M339.42,271.16c-7.55,0-7.56,11.72,0,11.72S347,271.16,339.42,271.16Z" transform="translate(-158.78 -164.86)"/><path class="cls-12" d="M373.44,284.65c-5.72,0-5.73,8.89,0,8.89S379.17,284.65,373.44,284.65Z" transform="translate(-158.78 -164.86)"/><path class="cls-12" d="M378.1,274.27c-1.58-2.7-4.75-3.2-7.4-1.94l-8.85,4.23c-2.64,1.26-3.33,5-1.94,7.39,1.57,2.7,4.75,3.21,7.39,1.94l8.86-4.23C378.79,280.41,379.49,276.64,378.1,274.27Z" transform="translate(-158.78 -164.86)"/><path class="cls-12" d="M388.81,269.27l-9.88,1.09c-3,.34-5.56,2.32-5.56,5.56,0,2.75,2.56,5.89,5.56,5.56l9.88-1.1c3-.33,5.55-2.31,5.55-5.56C394.36,272.08,391.81,268.93,388.81,269.27Z" transform="translate(-158.78 -164.86)"/><path class="cls-12" d="M394.2,272.24a5.67,5.67,0,0,0-1.44-2.47l-1.1-1.09a5.39,5.39,0,0,0-6.1-1.16,4.12,4.12,0,0,0-1.8,1.16l-.88,1.13a5.57,5.57,0,0,0-.76,2.82c.07.49.13,1,.2,1.48a5.57,5.57,0,0,0,1.44,2.47l1.09,1.1a4.22,4.22,0,0,0,1.8,1.15,5,5,0,0,0,4.31,0,4.22,4.22,0,0,0,1.8-1.15l.87-1.13a5.58,5.58,0,0,0,.77-2.82C394.33,273.23,394.26,272.74,394.2,272.24Z" transform="translate(-158.78 -164.86)"/><path class="cls-12" d="M399.35,267a4.7,4.7,0,0,0-6.27-1.64l-4.39,2.2a4.6,4.6,0,0,0-1.64,6.26,4.68,4.68,0,0,0,6.26,1.65l4.39-2.2A4.61,4.61,0,0,0,399.35,267Z" transform="translate(-158.78 -164.86)"/><path class="cls-12" d="M407.23,267.59a3.54,3.54,0,0,0-.94-1.47l-.92-.71a4.64,4.64,0,0,0-2.3-.62l-1.2.17a4.53,4.53,0,0,0-2,1.16l-1.1,1.1a3.39,3.39,0,0,0-.93,1.46,3.44,3.44,0,0,0-.4,1.75,5.23,5.23,0,0,0,1.33,3.22l.92.71a4.64,4.64,0,0,0,2.3.62l1.2-.17a4.53,4.53,0,0,0,2-1.16l1.1-1.1a4.39,4.39,0,0,0,.94-5Z" transform="translate(-158.78 -164.86)"/><path class="cls-12" d="M416.69,269.86c-1.53-2.37-5.06-3.78-7.61-2l-.38.28h0c-.16-.2-.42-.43-.54-.58-1.78-2.31-6-2-7.86,0-2.25,2.46-1.91,5.4,0,7.87,3.22,4.17,10.13,5,14.4,2C417.07,275.81,418.4,272.52,416.69,269.86Z" transform="translate(-158.78 -164.86)"/><path class="cls-12" d="M410.49,261.65a4.35,4.35,0,0,0-1.18-1.84,6.36,6.36,0,0,0-4-1.67l-1.52.2a5.65,5.65,0,0,0-2.52,1.47l-.89,1.16a5.61,5.61,0,0,0-.78,2.88V265a4.28,4.28,0,0,0,.49,2.2,4.23,4.23,0,0,0,1.18,1.83,6.3,6.3,0,0,0,4,1.68l1.52-.21a5.76,5.76,0,0,0,2.52-1.47l.89-1.15A5.61,5.61,0,0,0,411,265v-1.1A4.36,4.36,0,0,0,410.49,261.65Z" transform="translate(-158.78 -164.86)"/><path class="cls-12" d="M419.54,258.73c-6.59,0-6.61,10.24,0,10.24S426.14,258.73,419.54,258.73Z" transform="translate(-158.78 -164.86)"/><path class="cls-12" d="M428.32,256h-6.59a5.7,5.7,0,0,0,0,11.39h6.59a5.7,5.7,0,0,0,0-11.39Z" transform="translate(-158.78 -164.86)"/><path class="cls-12" d="M400.7,268.17a5.47,5.47,0,0,0-6.66-3.78l-9.91,3.2a5.53,5.53,0,0,0-3.78,6.66A5.48,5.48,0,0,0,387,278l9.91-3.2A5.54,5.54,0,0,0,400.7,268.17Z" transform="translate(-158.78 -164.86)"/><path class="cls-12" d="M402.35,259.75a6.53,6.53,0,0,0-2.94-3.81,6.4,6.4,0,0,0-4.91-.65,7.2,7.2,0,0,0-3.82,2.94l-3.15,4.48a6.39,6.39,0,0,0,7.21,9.38,7.24,7.24,0,0,0,3.81-2.93l3.15-4.49A6.46,6.46,0,0,0,402.35,259.75Z" transform="translate(-158.78 -164.86)"/><path class="cls-12" d="M414.14,235.84a10.5,10.5,0,0,0-11.95,2c-2.85,2.68-4.52,7.21-2.94,11,1,2.34,3.26,4.27,6,3.39,2.25-.72,4.45-3.46,3.4-6a4.19,4.19,0,0,1-.22-.59.49.49,0,0,0,0-.11v0c.05-.08.09-.17.14-.26l0-.08c-.07.17-.11.32.21-.21a3.07,3.07,0,0,1,.26-.25l0,0a4.31,4.31,0,0,1,.47-.26h0q.21.06.09,0h0c2.23.82,5,.39,6.17-1.92C417,240.34,416.6,237,414.14,235.84Z" transform="translate(-158.78 -164.86)"/><path class="cls-12" d="M427.22,241.87c-5.69,0-5.7,8.84,0,8.84S432.92,241.87,427.22,241.87Z" transform="translate(-158.78 -164.86)"/><path class="cls-12" d="M454.67,242.27l-15.38-4.34c-5.42-1.53-7.73,6.89-2.32,8.41l15.38,4.34C457.76,252.21,460.07,243.79,454.67,242.27Z" transform="translate(-158.78 -164.86)"/><path class="cls-12" d="M458.93,249.72l-7.65-6.63c-2.46-2.13-6.42-2.6-8.8,0-2.15,2.34-2.63,6.53,0,8.81l7.64,6.62c2.46,2.14,6.42,2.6,8.81,0C461.08,256.18,461.56,252,458.93,249.72Z" transform="translate(-158.78 -164.86)"/><path class="cls-12" d="M460.29,247.26l-9.88-2.2a4.79,4.79,0,0,0-5.76,3.28,4.73,4.73,0,0,0,3.27,5.76l9.88,2.2a4.8,4.8,0,0,0,5.77-3.28A4.74,4.74,0,0,0,460.29,247.26Z" transform="translate(-158.78 -164.86)"/><path class="cls-12" d="M475.56,244.79c-1.66-2.58-4.38-3-7-1.85l-7.68,3.3c-2.49,1.06-3.23,4.9-1.85,7,1.67,2.58,4.39,3,7,1.84l7.69-3.29C476.2,250.77,476.94,246.93,475.56,244.79Z" transform="translate(-158.78 -164.86)"/><path class="cls-12" d="M483.67,250.51a6,6,0,0,0-2.36-3.06l-4.4-3.27a5.14,5.14,0,0,0-4-.52A5.27,5.27,0,0,0,469.9,246a5.2,5.2,0,0,0-.52,4,6,6,0,0,0,2.36,3.06l4.4,3.28a5.13,5.13,0,0,0,7.53-5.79Z" transform="translate(-158.78 -164.86)"/><path class="cls-12" d="M469.5,236.92l-3.3-1.08a6.44,6.44,0,1,0-3.43,12.42l3.3,1.08a6.44,6.44,0,0,0,3.43-12.42Z" transform="translate(-158.78 -164.86)"/><path class="cls-12" d="M461.18,236c-.71-2.57-3.16-3.57-5.59-3.17L442.42,235c-2.42.4-3.77,3.4-3.17,5.58.71,2.57,3.16,3.57,5.58,3.17L458,241.58C460.43,241.18,461.78,238.18,461.18,236Z" transform="translate(-158.78 -164.86)"/><path class="cls-12" d="M458.05,233.55l-4.51-3.13a4.87,4.87,0,0,0-6.62,1.74,5,5,0,0,0,1.74,6.61l4.51,3.13a4.86,4.86,0,0,0,6.61-1.74A5,5,0,0,0,458.05,233.55Z" transform="translate(-158.78 -164.86)"/><path class="cls-12" d="M477.77,232.57a27.49,27.49,0,0,0-20.2-1.32c-5.7,1.88-3.26,10.93,2.49,9a17.69,17.69,0,0,1,13,.37c2.33,1,5,.66,6.41-1.68C480.65,237,480.08,233.6,477.77,232.57Z" transform="translate(-158.78 -164.86)"/><path class="cls-12" d="M475.51,235.81c-7.84,0-7.85,12.18,0,12.18S483.36,235.81,475.51,235.81Z" transform="translate(-158.78 -164.86)"/><path class="cls-12" d="M406.37,242.58c-6.19,0-6.2,9.62,0,9.62S412.57,242.58,406.37,242.58Z" transform="translate(-158.78 -164.86)"/><path class="cls-12" d="M417.63,237c-1-3-4.19-5.24-7.37-4.18L403.68,235c-3,1-5.21,4.17-4.18,7.36.95,3,4.18,5.24,7.36,4.18l6.59-2.19C416.41,243.39,418.66,240.21,417.63,237Z" transform="translate(-158.78 -164.86)"/><path class="cls-12" d="M437.1,234.46l-16.47-1.09c-6.73-.45-6.7,10,0,10.48l16.47,1.09C443.83,245.39,443.8,234.91,437.1,234.46Z" transform="translate(-158.78 -164.86)"/><path class="cls-12" d="M428.8,235.92a5.36,5.36,0,0,0-7.56,0,5.57,5.57,0,0,0-1.56,3.78v2.2a5.51,5.51,0,0,0,1.56,3.78,5.34,5.34,0,0,0,7.56,0,5.56,5.56,0,0,0,1.57-3.78v-2.2A5.52,5.52,0,0,0,428.8,235.92Z" transform="translate(-158.78 -164.86)"/><path class="cls-12" d="M430.46,240.85l-2.2-2.19a4.59,4.59,0,0,0-6.48,0,4.63,4.63,0,0,0-1.34,3.24,4.83,4.83,0,0,0,1.34,3.24l2.2,2.2a4.59,4.59,0,0,0,6.48,0,4.61,4.61,0,0,0,1.34-3.25A4.76,4.76,0,0,0,430.46,240.85Z" transform="translate(-158.78 -164.86)"/><path class="cls-12" d="M440.39,226.86l-16.46,2.2c-3.35.44-6.26,2.55-6.26,6.25,0,3,2.88,6.71,6.26,6.26l16.46-2.19c3.35-.45,6.26-2.56,6.26-6.26C446.65,230.08,443.76,226.41,440.39,226.86Z" transform="translate(-158.78 -164.86)"/><path class="cls-12" d="M466.19,229.65a8.63,8.63,0,0,0-10.49-6.19c-4.31,1.06-4.17,6.35-1.12,8.62l.37.28a3.27,3.27,0,0,1-.91-.15,23.37,23.37,0,0,1-4.62-1.52,28.76,28.76,0,0,0-9-2.13c-6.07-.31-6.05,9.13,0,9.43,4.88.25,9.05,3.45,14,3.72a12.07,12.07,0,0,0,10.3-4.45,9.19,9.19,0,0,0,1.45-2.81A5.3,5.3,0,0,0,466.19,229.65Z" transform="translate(-158.78 -164.86)"/><path class="cls-12" d="M473.12,230.62a4.5,4.5,0,0,0-5.42-3.08l-4.4,1.08a4.45,4.45,0,0,0-3.08,5.43,4.52,4.52,0,0,0,5.43,3.08l4.39-1.08A4.46,4.46,0,0,0,473.12,230.62Z" transform="translate(-158.78 -164.86)"/><path class="cls-12" d="M476.83,238.2l-11-2.2a5.11,5.11,0,0,0-6.13,3.48c-.67,2.45.83,5.59,3.48,6.12l11,2.2a5.12,5.12,0,0,0,6.13-3.48C481,241.87,479.48,238.73,476.83,238.2Z" transform="translate(-158.78 -164.86)"/><path class="cls-12" d="M479.54,240.06a5.81,5.81,0,0,0-8.07,0c-1.46,1.46-2.92,2.93-4.39,4.39a5.71,5.71,0,0,0,8.07,8.07l4.39-4.39A5.76,5.76,0,0,0,479.54,240.06Z" transform="translate(-158.78 -164.86)"/><path class="cls-12" d="M388.64,270.16c-1.45-2.48-4.27-2.84-6.69-1.76l-8.75,3.93c-4.32,1.94-2.27,9.67,2.47,9.12l5.45-.64a5.28,5.28,0,0,0,4.66-3.46l1.11-.5C389.3,275.77,389.87,272.27,388.64,270.16Z" transform="translate(-158.78 -164.86)"/><path class="cls-12" d="M366.51,287.87a6.69,6.69,0,0,0-.8-4A6.28,6.28,0,0,0,362,281a6.2,6.2,0,0,0-4.73.62,7.12,7.12,0,0,0-2.82,3.67c-1.81,4.51.66,10.22,4.83,12.45,2.83,1.51,6.81.8,8.4-2.2A6.4,6.4,0,0,0,366.51,287.87Z" transform="translate(-158.78 -164.86)"/><path class="cls-12" d="M361.36,294.17a5.8,5.8,0,0,0-7-4l-4.39,1.1a5.74,5.74,0,0,0-4,7,5.81,5.81,0,0,0,7,4l4.39-1.1A5.74,5.74,0,0,0,361.36,294.17Z" transform="translate(-158.78 -164.86)"/><path class="cls-12" d="M336.13,299.69h-7.69a4.77,4.77,0,0,0,0,9.53h7.69a4.77,4.77,0,0,0,0-9.53Z" transform="translate(-158.78 -164.86)"/><path class="cls-12" d="M337.22,303.73h-5.48a5.12,5.12,0,1,0,0,10.23h5.48a5.12,5.12,0,1,0,0-10.23Z" transform="translate(-158.78 -164.86)"/><path class="cls-12" d="M336.53,303.5a11.85,11.85,0,0,0-12,4.93,11.6,11.6,0,0,0-.91,12.06c1.32,2.81,5.58,3.76,8.11,2.13a6,6,0,0,0,2.42-7.34l0-.06.19-.19h0l0,0,.08,0-.07.08c2.76.08,5.57-1.28,6.25-4.24S339.8,304.05,336.53,303.5Z" transform="translate(-158.78 -164.86)"/><path class="cls-12" d="M334.42,315h-.05C334.16,315.29,334.28,315.19,334.42,315Z" transform="translate(-158.78 -164.86)"/><path class="cls-12" d="M324.06,318.18a5.3,5.3,0,0,0-7.07-1.85l-4,2a5.2,5.2,0,0,0-2.37,5.84,5.92,5.92,0,0,0,1.33,2.27,5.45,5.45,0,0,0,3.65,1.52l3,.28a5.24,5.24,0,0,0,3.66-1.51,5.61,5.61,0,0,0,1.44-2.76A5.3,5.3,0,0,0,324.06,318.18Z" transform="translate(-158.78 -164.86)"/><path class="cls-12" d="M325.45,326.62s0-.05,0,0c2.14-1.89,3.2-5,1.51-7.66s-5.44-4.06-8.17-2.14c-4.15,2.92-6.68,8.32-4.75,13.34,1.12,2.9,4.07,5.23,7.34,4.17,2.84-.92,5.37-4.23,4.18-7.35C325.52,326.84,325.49,326.73,325.45,326.62Z" transform="translate(-158.78 -164.86)"/><path class="cls-12" d="M319.72,330.85a4.68,4.68,0,0,0-3.29-1.36,4.81,4.81,0,0,0-3.29,1.36c-.74.73-1.47,1.46-2.2,2.2a4.77,4.77,0,0,0-1.36,3.29,4.66,4.66,0,0,0,4.65,4.66,4.91,4.91,0,0,0,3.3-1.37l2.19-2.19a4.8,4.8,0,0,0,1.37-3.3A4.73,4.73,0,0,0,319.72,330.85Z" transform="translate(-158.78 -164.86)"/><path class="cls-12" d="M317.13,351.72c-2.33-1.85-3-3.8-2-6.63,2.1-5.81-7.16-8.32-9.25-2.55a14.39,14.39,0,0,0-.1,9.43,21.8,21.8,0,0,0-11.89,12.58c-2.21,5.77,7.06,8.27,9.25,2.55a11.46,11.46,0,0,1,10.57-7.19C317.5,359.82,320.57,354.46,317.13,351.72Z" transform="translate(-158.78 -164.86)"/><path class="cls-12" d="M302.94,374.35c-.37-1.46-.73-2.92-1.1-4.39a5.48,5.48,0,0,0-6.66-3.78,5.53,5.53,0,0,0-3.79,6.66c.37,1.47.74,2.93,1.1,4.39a5.48,5.48,0,0,0,6.66,3.79A5.54,5.54,0,0,0,302.94,374.35Z" transform="translate(-158.78 -164.86)"/><path class="cls-12" d="M298.58,384.37A6.21,6.21,0,0,0,296,381l-3.27-2.23a5.58,5.58,0,0,0-8.19,6.3,6.27,6.27,0,0,0,2.56,3.33l3.27,2.23a5.57,5.57,0,0,0,8.19-6.29Z" transform="translate(-158.78 -164.86)"/><path class="cls-12" d="M297.81,380.8a5.38,5.38,0,0,0-3.16-2.43,6.12,6.12,0,0,0-2.45-.08l-.22,0a4.09,4.09,0,0,0-2.11.1,5.34,5.34,0,0,0-3.16,2.42,5.7,5.7,0,0,0-.53,4.07,5.62,5.62,0,0,0,.68,1.59,7.48,7.48,0,0,0,.92,1.18,5.89,5.89,0,0,0,1.15.89,6.61,6.61,0,0,0,3.33.91,6.51,6.51,0,0,0,3.3-.89,6.33,6.33,0,0,0,2.1-2.08l.11-.18a7.09,7.09,0,0,0,.57-1.4A5.55,5.55,0,0,0,297.81,380.8Z" transform="translate(-158.78 -164.86)"/><path class="cls-12" d="M293.32,368.09h-5.48a5.51,5.51,0,0,0,0,11h5.48a5.51,5.51,0,0,0,0-11Z" transform="translate(-158.78 -164.86)"/><path class="cls-12" d="M310.64,356.27c-1.65-2.56-5.54-4.15-8.31-2.18l-7.68,5.49c-2.58,1.84-4.06,5.37-2.18,8.3,1.65,2.56,5.54,4.15,8.31,2.18l7.68-5.49C311,362.73,312.53,359.2,310.64,356.27Z" transform="translate(-158.78 -164.86)"/><path class="cls-12" d="M318.93,350.56l-6.58-3.29c-2.37-1.19-5.61-.71-6.94,1.82-1.22,2.3-.72,5.67,1.82,6.94l6.58,3.29c2.37,1.19,5.61.71,6.94-1.82C322,355.2,321.47,351.83,318.93,350.56Z" transform="translate(-158.78 -164.86)"/><path class="cls-12" d="M319.37,347.05l-1.11-2.19A4.85,4.85,0,0,0,309.4,346a5.29,5.29,0,0,0,.49,3.74L311,352a4.85,4.85,0,0,0,8.86-1.16A5.35,5.35,0,0,0,319.37,347.05Z" transform="translate(-158.78 -164.86)"/><path class="cls-12" d="M325.08,331.59c-10-1-18.16,7.25-19.13,16.71-.35,3.39,3.14,6.3,6.29,6.3,3.7,0,5.95-2.9,6.3-6.3-.08.72.2-.6.25-.75.16-.45,0-.05.38-.73s.2-.36.51-.7c.08-.09,1-1,.58-.67,1.78-1.45,2.61-1.51,4.82-1.28,3.39.36,6.3-3.14,6.3-6.29C331.38,334.18,328.48,331.94,325.08,331.59Z" transform="translate(-158.78 -164.86)"/><path class="cls-12" d="M332.9,321.51a6,6,0,0,0-2.69-3.49,5.85,5.85,0,0,0-8,2.1l-1.11,2.18a6.17,6.17,0,0,0-.59,4.51,5.94,5.94,0,0,0,2.69,3.5,5.84,5.84,0,0,0,8-2.1l1.11-2.19A6.16,6.16,0,0,0,332.9,321.51Z" transform="translate(-158.78 -164.86)"/><path class="cls-12" d="M341.08,308.27l-.23-.24c-.09-.15-.18-.28-.26-.43.5.84.11,0-.06-.45a2.62,2.62,0,0,1,0-.28c0,.21.25-.89.36-1.15,1-2.55-1.13-5.87-3.66-6.45-3-.69-5.33.94-6.45,3.66a12.13,12.13,0,0,0,2.89,12.75,5.24,5.24,0,1,0,7.41-7.41Z" transform="translate(-158.78 -164.86)"/><path class="cls-12" d="M346.74,301.63l-5.48-3.29a5.82,5.82,0,1,0-5.87,10l5.49,3.29a5.81,5.81,0,1,0,5.86-10Z" transform="translate(-158.78 -164.86)"/><path class="cls-12" d="M351.52,300.69l-11-.95c-3-.27-5.66,2.79-5.66,5.66,0,3.28,2.6,5.39,5.66,5.66l11,.95c3.05.27,5.66-2.79,5.66-5.66C357.18,303.07,354.58,301,351.52,300.69Z" transform="translate(-158.78 -164.86)"/><path class="cls-12" d="M348,308.62a4.91,4.91,0,0,0-6.56-1.72l-6.59,3.29a4.84,4.84,0,0,0-1.72,6.57,4.92,4.92,0,0,0,6.57,1.72l6.58-3.3A4.82,4.82,0,0,0,348,308.62Z" transform="translate(-158.78 -164.86)"/><path class="cls-12" d="M342.69,326.57c-1.72-2.68-5.61-4.2-8.51-2.32l-.13-.14c-2.05-2.6-6.79-2.3-8.9,0-2.54,2.76-2.19,6.13,0,8.9,3.46,4.4,10.73,5.27,15.29,2.17C343.15,333.33,344.62,329.56,342.69,326.57Z" transform="translate(-158.78 -164.86)"/><path class="cls-12" d="M341.61,318.51c-7.33,0-7.34,11.4,0,11.4S349,318.51,341.61,318.51Z" transform="translate(-158.78 -164.86)"/><path class="cls-12" d="M344.35,313.24a5,5,0,0,0-4.93-4.93,7.32,7.32,0,0,0-6.22,3.51,7.13,7.13,0,0,0-1,3A7.43,7.43,0,0,0,333,319a4.94,4.94,0,0,0,2.94,2.26,4.95,4.95,0,0,0,6.07-3.44l.06-.46A4.85,4.85,0,0,0,344.35,313.24Z" transform="translate(-158.78 -164.86)"/><path class="cls-12" d="M351.7,298.2c-1.73-2.95-5.19-3.49-8.08-2.12l-6.91,3.28a6.53,6.53,0,0,0-5.14-2.9c-3.52,0-5.51,2.73-5.91,5.91l-.79,6.31c-.61,4.88,5.36,6.77,8.89,5.1l15.82-7.5C352.46,304.91,353.21,300.78,351.7,298.2Z" transform="translate(-158.78 -164.86)"/><path class="cls-12" d="M332.65,301.36a4.71,4.71,0,0,0-6.35-1.66l-7.43,4.22c-3.86,2.19-2.33,8.93,2.35,8.64l2.84-.17a5,5,0,0,0,4.43-3.27l2.49-1.41A4.71,4.71,0,0,0,332.65,301.36Z" transform="translate(-158.78 -164.86)"/><path class="cls-12" d="M341.93,300.83a4.8,4.8,0,0,0-1.33-2.06,6.47,6.47,0,0,0-4.53-1.88,6.73,6.73,0,0,0-4.53,1.88l-2.2,2.2a6.61,6.61,0,0,0-1.87,4.53A4.79,4.79,0,0,0,328,308a4.87,4.87,0,0,0,1.32,2.06,6.51,6.51,0,0,0,4.54,1.88,6.69,6.69,0,0,0,4.53-1.88l2.19-2.19a6.6,6.6,0,0,0,1.88-4.54A4.89,4.89,0,0,0,341.93,300.83Z" transform="translate(-158.78 -164.86)"/><path class="cls-12" d="M343.79,297.26l-9.88,1.1c-2.58.28-4.81,2-4.81,4.8,0,2.38,2.21,5.1,4.81,4.81l9.88-1.1c2.58-.28,4.8-2,4.8-4.8C348.59,299.69,346.38,297,343.79,297.26Z" transform="translate(-158.78 -164.86)"/><path class="cls-12" d="M346,293.65c-6.83,0-6.85,10.63,0,10.63S352.85,293.65,346,293.65Z" transform="translate(-158.78 -164.86)"/><path class="cls-12" d="M344.2,273.13a5.64,5.64,0,0,0-7.58-2l-7.68,4.39a5.54,5.54,0,0,0,5.59,9.57l7.69-4.39A5.61,5.61,0,0,0,344.2,273.13Z" transform="translate(-158.78 -164.86)"/><path class="cls-12" d="M352.49,264.65l-3.29-4.39a5.62,5.62,0,0,0-3.05-2.35,5.23,5.23,0,0,0-3.93.52,5.17,5.17,0,0,0-2.35,3.05,5,5,0,0,0,.51,3.93c1.1,1.47,2.2,2.93,3.29,4.4a5.61,5.61,0,0,0,3.05,2.34,5.22,5.22,0,0,0,3.94-.51,5.11,5.11,0,0,0,2.34-3.05A5,5,0,0,0,352.49,264.65Z" transform="translate(-158.78 -164.86)"/><path class="cls-12" d="M346.61,260.89,340,259.8a6.79,6.79,0,0,0-4.84.63,6.41,6.41,0,0,0-2.89,3.76c-.69,3,.92,7.15,4.39,7.73l6.59,1.09a6.79,6.79,0,0,0,4.84-.63,6.37,6.37,0,0,0,2.89-3.76C351.69,265.59,350.08,261.47,346.61,260.89Z" transform="translate(-158.78 -164.86)"/><path class="cls-12" d="M354.78,251c-8,0-8.06,12.51,0,12.51S362.85,251,354.78,251Z" transform="translate(-158.78 -164.86)"/><path class="cls-12" d="M387.67,251.37a5.61,5.61,0,0,0-2.59-3.38l-2.2-1.09a6,6,0,0,0-4.36-.57,5.78,5.78,0,0,0-3.38,2.59,5.69,5.69,0,0,0-.56,4.36,5.61,5.61,0,0,0,2.59,3.38l2.2,1.1a6,6,0,0,0,4.35.57,5.77,5.77,0,0,0,3.38-2.6A5.68,5.68,0,0,0,387.67,251.37Z" transform="translate(-158.78 -164.86)"/><path class="cls-12" d="M392,249.07a5.75,5.75,0,0,0-6.94-3.95l-4.38,1.13a5.65,5.65,0,0,0,3,10.89l4.38-1.13A5.7,5.7,0,0,0,392,249.07Z" transform="translate(-158.78 -164.86)"/><path class="cls-12" d="M406.78,245.2l-6.58-1.1c-2.93-.49-6.27.76-7,4-.62,2.75.84,6.47,4,7l6.59,1.1c2.92.49,6.26-.76,7-4C411.38,249.45,409.92,245.72,406.78,245.2Z" transform="translate(-158.78 -164.86)"/><path class="cls-12" d="M417.73,245.91c-.91-2.79-3.37-3.93-6.13-3.48l-5.52.91c-2.57.43-4.24,3.76-3.47,6.13.9,2.79,3.36,3.93,6.12,3.47l5.52-.91C416.83,251.61,418.49,248.28,417.73,245.91Z" transform="translate(-158.78 -164.86)"/><path class="cls-12" d="M430.9,237.6l-6.58-1.1c-2.88-.48-6.17.76-6.89,3.91-.61,2.7.82,6.37,3.91,6.89l6.59,1.09c2.87.48,6.16-.75,6.88-3.91C435.43,241.78,434,238.11,430.9,237.6Z" transform="translate(-158.78 -164.86)"/><path class="cls-12" d="M443.68,238.26h-4.39a4.74,4.74,0,1,0,0,9.48h4.39a4.74,4.74,0,1,0,0-9.48Z" transform="translate(-158.78 -164.86)"/><path class="cls-12" d="M448.16,235.62a3.7,3.7,0,0,0-1-1.58,3.8,3.8,0,0,0-1.58-1,3.6,3.6,0,0,0-1.89-.42l-1.3.17a5.11,5.11,0,0,0-2.17,1.26c-.25.33-.51.66-.76,1a4.85,4.85,0,0,0-.67,2.47v1.1a3.64,3.64,0,0,0,.42,1.89,3.76,3.76,0,0,0,1,1.57,3.72,3.72,0,0,0,1.58,1,3.85,3.85,0,0,0,1.89.42l1.3-.18a4.86,4.86,0,0,0,2.17-1.26l.76-1a4.78,4.78,0,0,0,.67-2.47v-1.1A3.62,3.62,0,0,0,448.16,235.62Z" transform="translate(-158.78 -164.86)"/><path class="cls-12" d="M454.57,248.08l-3.28-8.79c-1-2.65-3.72-4.75-6.69-3.79-2.59.84-4.86,3.83-3.79,6.68l3.28,8.79c1,2.65,3.72,4.75,6.68,3.79C453.37,253.92,455.64,250.93,454.57,248.08Z" transform="translate(-158.78 -164.86)"/><path class="cls-12" d="M435.34,254c-1.3-2.22-3.76-2.47-5.91-1.55l-7.68,3.29c-2.15.92-2.63,4.07-1.55,5.91,1.29,2.22,3.75,2.47,5.91,1.55l7.68-3.29C435.93,259,436.41,255.82,435.34,254Z" transform="translate(-158.78 -164.86)"/><path class="cls-12" d="M418.11,261.35a4.78,4.78,0,0,0-2.85-2.19,5.16,5.16,0,0,0-3.67.48l-2.18,1.11a4.75,4.75,0,0,0-1.71,6.51,4.76,4.76,0,0,0,2.84,2.19,5.15,5.15,0,0,0,3.67-.48l2.19-1.11a4.83,4.83,0,0,0,2.19-2.84A4.9,4.9,0,0,0,418.11,261.35Z" transform="translate(-158.78 -164.86)"/><path class="cls-12" d="M465.85,242.13l-7-4.51a5.29,5.29,0,0,0-7.13,1.87,24.72,24.72,0,0,1-18,12c-6.57.82-6.66,11.26,0,10.43a36,36,0,0,0,23.83-12.72l3,1.95C466.24,254.79,471.47,245.77,465.85,242.13Z" transform="translate(-158.78 -164.86)"/><path class="cls-12" d="M473.19,229.83a8.8,8.8,0,0,0-10.74,5.69,9.47,9.47,0,0,0,4.33,11.08,5.13,5.13,0,0,0,.89.35,3.24,3.24,0,0,0,1.15.42,9.26,9.26,0,0,0,7-1.35,9.67,9.67,0,0,0,4-5.8A8.9,8.9,0,0,0,473.19,229.83Z" transform="translate(-158.78 -164.86)"/><path class="cls-12" d="M479.06,240.28a5.45,5.45,0,0,0-3.22-2.48l-1.43-.19a5.32,5.32,0,0,0-2.72.74l-2.19,1.09a5.49,5.49,0,0,0-2.48,3.22,5.56,5.56,0,0,0,.54,4.15,5.47,5.47,0,0,0,3.22,2.48l1.44.19a5.37,5.37,0,0,0,2.71-.73l2.2-1.1a5.4,5.4,0,0,0,1.93-7.37Z" transform="translate(-158.78 -164.86)"/><path class="cls-12" d="M483.48,237a5.11,5.11,0,0,0-5.38,1.91,5.12,5.12,0,0,0-1.72,10,8.45,8.45,0,0,0,6.56-.67,8.68,8.68,0,0,0,4.11-5A5.14,5.14,0,0,0,483.48,237Z" transform="translate(-158.78 -164.86)"/><path class="cls-12" d="M488.44,246.17l-.57-1.35a5.86,5.86,0,0,0-2-2l-3.15-2.37a5.73,5.73,0,0,0-4.38-.58,5.83,5.83,0,0,0-3.39,2.61,5.76,5.76,0,0,0-.57,4.37l.57,1.36a5.75,5.75,0,0,0,2,2l3.15,2.38a5.68,5.68,0,0,0,4.38.57,5.66,5.66,0,0,0,4-7Z" transform="translate(-158.78 -164.86)"/><path class="cls-12" d="M485.39,234.41c-8.23,0-8.24,12.78,0,12.78S493.62,234.41,485.39,234.41Z" transform="translate(-158.78 -164.86)"/><path class="cls-12" d="M492,235.62h-3.29a6.48,6.48,0,0,0-4.44,1.84,6.27,6.27,0,0,0,4.44,10.71H492a6.51,6.51,0,0,0,4.44-1.83A6.28,6.28,0,0,0,492,235.62Z" transform="translate(-158.78 -164.86)"/><path class="cls-12" d="M487.38,237.24q-1.65-2.19-3.29-4.39a5.27,5.27,0,0,0-2.85-2.19,4.93,4.93,0,0,0-3.68.48c-2,1.27-3.31,4.39-1.71,6.53l3.3,4.38a5.17,5.17,0,0,0,2.85,2.2,4.85,4.85,0,0,0,3.67-.49C487.64,242.5,489,239.38,487.38,237.24Z" transform="translate(-158.78 -164.86)"/><path class="cls-12" d="M492,235.37a4.57,4.57,0,0,0-5.55-3.15l-3.3,1.07a4.76,4.76,0,0,0-2.69,2.07,4.51,4.51,0,0,0,5.09,6.63l3.3-1.08a4.72,4.72,0,0,0,2.69-2.07A4.58,4.58,0,0,0,492,235.37Z" transform="translate(-158.78 -164.86)"/><path class="cls-12" d="M492,236.29c-5.81,0-5.82,9,0,9S497.79,236.29,492,236.29Z" transform="translate(-158.78 -164.86)"/><path class="cls-12" d="M497.46,237.91c-6.55,0-6.56,10.17,0,10.17S504,237.91,497.46,237.91Z" transform="translate(-158.78 -164.86)"/><path class="cls-12" d="M396.46,271.56a4.65,4.65,0,0,0-3.26-1.36,4.81,4.81,0,0,0-3.27,1.36l-2.2,2.19a4.8,4.8,0,0,0-1.35,3.27,4.71,4.71,0,0,0,1.35,3.27,4.62,4.62,0,0,0,3.27,1.35,4.82,4.82,0,0,0,3.27-1.35l2.19-2.2a4.76,4.76,0,0,0,1.36-3.27A4.7,4.7,0,0,0,396.46,271.56Z" transform="translate(-158.78 -164.86)"/><path class="cls-12" d="M345.34,302.42a4,4,0,0,0-1.09-1.7,4.11,4.11,0,0,0-1.7-1.09,4,4,0,0,0-2-.45l-1.41.19a5.24,5.24,0,0,0-2.32,1.35c-.28.36-.55.72-.83,1.07a5.22,5.22,0,0,0-.72,2.67v1.09a4,4,0,0,0,.45,2,4.8,4.8,0,0,0,2.79,2.79,4,4,0,0,0,2,.45l1.4-.19a5.33,5.33,0,0,0,2.33-1.35l.82-1.07a5.22,5.22,0,0,0,.72-2.67v-1.09A4,4,0,0,0,345.34,302.42Z" transform="translate(-158.78 -164.86)"/><path class="cls-12" d="M327,316c-2-1.86-5.93-2.43-7.88,0q-2.19,2.75-4.39,5.48a6.09,6.09,0,0,0-1.63,3.94,5.68,5.68,0,0,0,1.63,3.94c2,1.85,5.93,2.42,7.88,0l4.39-5.49a6.05,6.05,0,0,0,1.63-3.94A5.68,5.68,0,0,0,327,316Z" transform="translate(-158.78 -164.86)"/><path class="cls-12" d="M300.76,338.29a4.88,4.88,0,0,0-1.14-1.86,3.84,3.84,0,0,0,1-1.76,4.45,4.45,0,0,0-3.05-5.36,7.78,7.78,0,0,0-9.88,7.27c0,4.83,5.41,8.8,10,7.06C299.84,342.84,301.53,340.67,300.76,338.29Z" transform="translate(-158.78 -164.86)"/><path class="cls-12" d="M297,341l-5.48-2.19a5.41,5.41,0,0,0-4.16.54,5.52,5.52,0,0,0-2.48,3.22c-.71,3.12,1,5.51,3.77,6.64l5.49,2.19a5.39,5.39,0,0,0,4.15-.54,5.5,5.5,0,0,0,2.48-3.23C301.43,344.48,299.76,342.09,297,341Z" transform="translate(-158.78 -164.86)"/><path class="cls-12" d="M296.35,351.49c-2.2-.5-5.38.67-5.73,3.25l-1.07,7.69c-.33,2.4.58,5.12,3.25,5.73,2.2.5,5.38-.67,5.73-3.25l1.07-7.69C299.93,354.82,299,352.1,296.35,351.49Z" transform="translate(-158.78 -164.86)"/><path class="cls-12" d="M299.4,364.61a4.62,4.62,0,0,0-2.72-2.1,5,5,0,0,0-3.51.46L291,364.08a4.56,4.56,0,0,0,1.09,8.34,5,5,0,0,0,3.51-.46l2.19-1.11a4.57,4.57,0,0,0,1.63-6.24Z" transform="translate(-158.78 -164.86)"/><path class="cls-12" d="M304.68,363a5.56,5.56,0,0,0-3.34-2.57l-1.48-.2A5.48,5.48,0,0,0,297,361l-2.19,1.11a5.6,5.6,0,0,0,1.34,10.22l1.48.2a5.58,5.58,0,0,0,2.82-.77l2.19-1.11a5.57,5.57,0,0,0,2-7.64Z" transform="translate(-158.78 -164.86)"/><path class="cls-12" d="M289.06,376.08a3.75,3.75,0,0,0-1-1.59l-1-.77a5,5,0,0,0-2.5-.68l-1.31.18a4.91,4.91,0,0,0-2.18,1.27l-1.1,1.1a5.09,5.09,0,0,0,0,7l1,.78a5,5,0,0,0,2.5.67l1.31-.18a4.77,4.77,0,0,0,2.18-1.27l1.1-1.09a3.73,3.73,0,0,0,1-1.6,4.43,4.43,0,0,0,0-3.81Z" transform="translate(-158.78 -164.86)"/><path class="cls-12" d="M298.5,364.2a4,4,0,0,0-2.36-2.36,3.38,3.38,0,0,0-1.72-.39l-1.18.16a4.42,4.42,0,0,0-2,1.15,4.6,4.6,0,0,0-1.31,3.16V367a3.37,3.37,0,0,0,.38,1.72,3.27,3.27,0,0,0,.93,1.44,3.36,3.36,0,0,0,1.43.92,3.4,3.4,0,0,0,1.72.39l1.19-.16a4.48,4.48,0,0,0,3.28-4.31v-1.09A3.38,3.38,0,0,0,298.5,364.2Z" transform="translate(-158.78 -164.86)"/><path class="cls-12" d="M305.77,353.53a5.43,5.43,0,0,0-3.22-2.47,5.82,5.82,0,0,0-4.15.54l-2.17,1.14a5.37,5.37,0,0,0-1.93,7.37,5.4,5.4,0,0,0,3.22,2.47,5.8,5.8,0,0,0,4.14-.54l2.18-1.14a5.47,5.47,0,0,0,2.47-3.22A5.56,5.56,0,0,0,305.77,353.53Z" transform="translate(-158.78 -164.86)"/><path class="cls-12" d="M303.2,349.66h-4.39a6.38,6.38,0,0,0,0,12.76h4.39c3.34,0,6.54-2.94,6.38-6.38A6.48,6.48,0,0,0,303.2,349.66Z" transform="translate(-158.78 -164.86)"/><path class="cls-12" d="M304.3,343.51l-8.78,1.1c-3.07.38-6.1,2.45-5.95,5.94.13,2.89,2.64,6.36,5.95,5.95l8.78-1.1c3.07-.39,6.1-2.46,5.95-5.95C310.12,346.56,307.61,343.09,304.3,343.51Z" transform="translate(-158.78 -164.86)"/><path class="cls-12" d="M318.34,345.81a5.46,5.46,0,0,0-1.41-2.41l-1.1-.85a5.43,5.43,0,0,0-2.75-.74H312a5.6,5.6,0,0,0-5.45,5.45c.07.48.13,1,.2,1.45a5.32,5.32,0,0,0,1.4,2.4l1.1.86a5.43,5.43,0,0,0,2.75.74h1.1a4.1,4.1,0,0,0,2.1-.47,4.95,4.95,0,0,0,2.88-2.88,4.1,4.1,0,0,0,.47-2.1C318.47,346.78,318.4,346.29,318.34,345.81Z" transform="translate(-158.78 -164.86)"/><path class="cls-12" d="M309,340.66,296.89,332c-2.37-1.69-6-.42-7.38,1.94-1.59,2.71-.44,5.68,1.93,7.38L303.59,350c2.37,1.69,6,.41,7.38-1.94C312.56,345.33,311.42,342.36,309,340.66Z" transform="translate(-158.78 -164.86)"/><path class="cls-12" d="M298.31,324.14c-1.26-1.95-4.06-3-6.16-1.62l-3.29,2.2a4.76,4.76,0,0,0-2.07,2.69,4.6,4.6,0,0,0,.46,3.46c1.25,1.95,4.06,3,6.15,1.62l3.29-2.2a4.76,4.76,0,0,0,2.07-2.69A4.59,4.59,0,0,0,298.31,324.14Z" transform="translate(-158.78 -164.86)"/><path class="cls-12" d="M303.14,315.09l-1.2-2.14a5.36,5.36,0,0,0-3.11-2.39,5.31,5.31,0,0,0-4,.53,5.22,5.22,0,0,0-2.39,3.11,5.5,5.5,0,0,0,.53,4l1.19,2.14a5.4,5.4,0,0,0,3.11,2.39,5.3,5.3,0,0,0,4-.53,5.22,5.22,0,0,0,2.39-3.11A5.5,5.5,0,0,0,303.14,315.09Z" transform="translate(-158.78 -164.86)"/><path class="cls-12" d="M308,311.85c-1.11-3.44-4.13-4.81-7.52-4.27l-7.43,1.18c-4.67.74-5.7,7.25-2.69,10.22l1.9,1.88a6.2,6.2,0,0,0,8.65,0,6.84,6.84,0,0,0,.85-1.17l2-.31C306.94,318.88,309,314.75,308,311.85Z" transform="translate(-158.78 -164.86)"/><path class="cls-12" d="M302.48,310.83a5,5,0,0,0-1.27-2.18l-1.1-1.1a4.74,4.74,0,0,0-5.39-1,3.64,3.64,0,0,0-1.59,1l-.78,1a5,5,0,0,0-.67,2.49l.18,1.31a4.77,4.77,0,0,0,1.27,2.18l1.09,1.1a5.54,5.54,0,0,0,3.49,1.45,3.8,3.8,0,0,0,1.91-.43,3.75,3.75,0,0,0,1.59-1l.77-1a5,5,0,0,0,.67-2.49C302.59,311.7,302.53,311.26,302.48,310.83Z" transform="translate(-158.78 -164.86)"/><path class="cls-12" d="M308.87,307.61c-.91-2.83-4-5.08-7.1-4l-6.57,2.24c-2.85,1-5,4-4,7.1.92,2.83,4,5.08,7.11,4l6.57-2.23C307.69,313.74,309.87,310.7,308.87,307.61Z" transform="translate(-158.78 -164.86)"/><path class="cls-12" d="M309.05,305.84v-.1a5.87,5.87,0,0,0-.8-3l-.93-1.19a5.84,5.84,0,0,0-2.6-1.51c-.24,0-1.33-.22-1.59-.22h-.06c-.09,0-1.49.18-1.59.22h-.06l-1.43.61a6.05,6.05,0,0,0-.63.48,4.91,4.91,0,0,0-.65.52s-.91,1.16-.94,1.21l0,.05c-.09.15-.55,1.26-.61,1.44l0,.05v.05c-.06.24-.19,1.34-.21,1.6a.49.49,0,0,0,0,.12v.06c0,.15.19,1.46.22,1.6s0,.07,0,.11.23.57.31.73a7.35,7.35,0,0,0,.32.75l0,.05c.07.11.86,1.13.94,1.21l0,0c.05.06,1.13.89,1.21.94l0,0c.07.05,1.33.58,1.43.61h.06c.06,0,1.53.21,1.59.21h.06c.22,0,1.39-.17,1.61-.22a4.44,4.44,0,0,0,2-1.05,4.55,4.55,0,0,0,1.52-1.65,4.46,4.46,0,0,0,.7-2.2A4.66,4.66,0,0,0,309.05,305.84Z" transform="translate(-158.78 -164.86)"/><path class="cls-12" d="M309.85,297.54a5,5,0,0,0-7,0l-3.45,3.12a5,5,0,0,0,0,7,5,5,0,0,0,7,0l3.45-3.12A5,5,0,0,0,309.85,297.54Z" transform="translate(-158.78 -164.86)"/><path class="cls-12" d="M313.47,292.35l-6.59-3.29c-2.39-1.2-5.65-.72-7,1.84-1.23,2.32-.72,5.73,1.83,7l6.59,3.3c2.39,1.19,5.66.71,7-1.84C316.53,297,316,293.63,313.47,292.35Z" transform="translate(-158.78 -164.86)"/><path class="cls-12" d="M323.45,287.08a5.83,5.83,0,0,0-3.46-2.67,5.93,5.93,0,0,0-4.46.59l-3.37,2.08a6.06,6.06,0,0,0-2.66,3.46,6,6,0,0,0,.58,4.47,5.82,5.82,0,0,0,3.47,2.66,5.93,5.93,0,0,0,4.46-.58l3.36-2.09a6.08,6.08,0,0,0,2.67-3.46A5.89,5.89,0,0,0,323.45,287.08Z" transform="translate(-158.78 -164.86)"/><path class="cls-12" d="M326.17,282.62l-11,3.22c-5.67,1.67-3.26,10.55,2.44,8.88l11-3.23C334.29,289.83,331.87,281,326.17,282.62Z" transform="translate(-158.78 -164.86)"/><path class="cls-12" d="M342.05,280.78a8.19,8.19,0,0,0-13.9.08,5.58,5.58,0,0,0,2,7.57,5.67,5.67,0,0,0,5,.22,6.29,6.29,0,0,0,.65.26,5.66,5.66,0,0,0,4.26-.56C342.42,286.83,343.8,283.33,342.05,280.78Z" transform="translate(-158.78 -164.86)"/><path class="cls-12" d="M348.38,286.4,346,281a5.44,5.44,0,0,0-3.28-2.52,5.6,5.6,0,0,0-4.22.55,5.54,5.54,0,0,0-2.52,3.27,6.4,6.4,0,0,0,.55,4.23l2.37,5.41a5.47,5.47,0,0,0,3.28,2.52,5.48,5.48,0,0,0,6.74-3.83A6.37,6.37,0,0,0,348.38,286.4Z" transform="translate(-158.78 -164.86)"/><path class="cls-12" d="M340.54,310.19A4.63,4.63,0,0,0,335,307a7.91,7.91,0,0,0-5.33,4.23,8.47,8.47,0,0,0,0,7.73,4.49,4.49,0,0,0,8.22-3.42A4.6,4.6,0,0,0,340.54,310.19Z" transform="translate(-158.78 -164.86)"/><path class="cls-12" d="M341.61,313.56H335a5.16,5.16,0,1,0,0,10.32h6.58a5.16,5.16,0,0,0,0-10.32Z" transform="translate(-158.78 -164.86)"/><path class="cls-12" d="M341,308.31a6.08,6.08,0,0,0-1.58-2.72l-1.25-1a6.08,6.08,0,0,0-3.11-.84h-1.1a6.33,6.33,0,0,0-6.16,6.16c.07.55.14,1.1.22,1.64a6.13,6.13,0,0,0,1.58,2.72l1.25,1a6.28,6.28,0,0,0,3.11.84H335a5.95,5.95,0,0,0,5.63-3.79,4.55,4.55,0,0,0,.53-2.38C341.12,309.4,341.05,308.85,341,308.31Z" transform="translate(-158.78 -164.86)"/><path class="cls-12" d="M355.75,301.88c-.73-2.68-4-5-6.83-3.88l-14.27,5.49c-2.8,1.07-4.73,3.74-3.88,6.83.73,2.68,4,5,6.83,3.89l14.27-5.49C354.67,307.64,356.61,305,355.75,301.88Z" transform="translate(-158.78 -164.86)"/><path class="cls-12" d="M377.75,286.6c-.61-2.22-3.27-4-5.58-3.16l-12.09,4.34a4.66,4.66,0,0,0-3.17,5.58c.62,2.23,3.27,4,5.58,3.17l12.09-4.35A4.66,4.66,0,0,0,377.75,286.6Z" transform="translate(-158.78 -164.86)"/><path class="cls-12" d="M398.74,264.89a4.75,4.75,0,0,0-3.35-1.39,4.9,4.9,0,0,0-3.35,1.39l-2.2,2.19a4.89,4.89,0,0,0-1.38,3.35,4.73,4.73,0,0,0,4.74,4.75,5,5,0,0,0,3.35-1.39l2.19-2.2a4.9,4.9,0,0,0,1.39-3.35A4.79,4.79,0,0,0,398.74,264.89Z" transform="translate(-158.78 -164.86)"/><path class="cls-12" d="M382.61,269.31l-4.39-2.19c-2.39-1.2-5.65-.72-7,1.83-1.22,2.32-.72,5.72,1.84,7l4.39,2.19c2.39,1.2,5.64.72,7-1.83C385.67,274,385.16,270.59,382.61,269.31Z" transform="translate(-158.78 -164.86)"/><path class="cls-12" d="M371.34,272.81l-5.47-1.19c-2.49-.55-5.41.74-6,3.42-.57,2.47.74,5.43,3.42,6l5.46,1.2c2.5.54,5.42-.75,6-3.42C375.32,276.36,374,273.4,371.34,272.81Z" transform="translate(-158.78 -164.86)"/><path class="cls-12" d="M373.44,270.1l-9.88-1.1c-2.53-.28-4.72,2.38-4.72,4.73,0,2.78,2.18,4.44,4.72,4.72l9.88,1.1c2.54.28,4.72-2.38,4.72-4.73C378.16,272,376,270.39,373.44,270.1Z" transform="translate(-158.78 -164.86)"/><path class="cls-12" d="M369.35,272.38A5.71,5.71,0,0,0,366,269a4.74,4.74,0,0,0-2.44-.55l-1.68.23a6.27,6.27,0,0,0-2.79,1.63l-1,1.28a6.28,6.28,0,0,0-.86,3.19v1.1a4.76,4.76,0,0,0,.55,2.44,4.63,4.63,0,0,0,1.31,2,7,7,0,0,0,4.47,1.86l1.69-.23A6.27,6.27,0,0,0,368,280.4l1-1.28a6.3,6.3,0,0,0,.87-3.2v-1.1A4.78,4.78,0,0,0,369.35,272.38Z" transform="translate(-158.78 -164.86)"/><path class="cls-12" d="M374.82,268.55a5.67,5.67,0,0,0-7.56-2l-4.37,2.23a5.56,5.56,0,0,0-2,7.55,5.64,5.64,0,0,0,7.55,2l4.38-2.22A5.57,5.57,0,0,0,374.82,268.55Z" transform="translate(-158.78 -164.86)"/><path class="cls-12" d="M374.93,265.21a5.54,5.54,0,0,0-3.9-1.61h-.11a5.14,5.14,0,0,0-4.18-2,5.6,5.6,0,0,0-5.51,5.51,8,8,0,0,0,4.39,7,9,9,0,0,0,4.16,1,8.16,8.16,0,0,0,5.15-2.16,5.52,5.52,0,0,0,1.61-3.89A5.63,5.63,0,0,0,374.93,265.21Z" transform="translate(-158.78 -164.86)"/><path class="cls-12" d="M371.35,265l-3.29-1.11a4.62,4.62,0,0,0-5.65,3.2,4.7,4.7,0,0,0,3.21,5.65l3.29,1.11a4.62,4.62,0,0,0,5.64-3.2A4.7,4.7,0,0,0,371.35,265Z" transform="translate(-158.78 -164.86)"/><path class="cls-12" d="M372.34,261.9h-3.29a5.24,5.24,0,0,0,0,10.48h3.29a5.24,5.24,0,1,0,0-10.48Z" transform="translate(-158.78 -164.86)"/><path class="cls-12" d="M376.21,266.57a6.31,6.31,0,0,0-1.62-2.78l-1.27-1a6.31,6.31,0,0,0-3.17-.86h-1.1a7.11,7.11,0,0,0-4.44,1.84,4.64,4.64,0,0,0-1.3,2,4.58,4.58,0,0,0-.54,2.42l.22,1.67a6.28,6.28,0,0,0,1.62,2.77l1.27,1a6.2,6.2,0,0,0,3.17.85h1.1a6.45,6.45,0,0,0,6.28-6.28C376.36,267.68,376.28,267.13,376.21,266.57Z" transform="translate(-158.78 -164.86)"/><path class="cls-12" d="M375.64,255.16c-2.51-1.33-4.95-.44-6.56,1.72l-4.71,6.34c-1.5,2-.4,5.44,1.72,6.55,2.5,1.33,5,.44,6.55-1.72l4.71-6.34C378.86,259.69,377.75,256.28,375.64,255.16Z" transform="translate(-158.78 -164.86)"/><path class="cls-12" d="M376.76,250l-8.78,1.1c-2.71.34-5.38,2.17-5.24,5.24.11,2.54,2.33,5.6,5.24,5.24l8.78-1.1c2.71-.34,5.37-2.17,5.24-5.24C381.88,252.71,379.67,249.66,376.76,250Z" transform="translate(-158.78 -164.86)"/><path class="cls-12" d="M371.59,254.22l-7.69-2.16a5.84,5.84,0,1,0-3.1,11.26l7.69,2.15a5.83,5.83,0,1,0,3.1-11.25Z" transform="translate(-158.78 -164.86)"/><path class="cls-12" d="M376.07,254.5a5.44,5.44,0,0,0-7.09-.36s0,0-.08,0h0c-1.67-2-4.61-3-7-1.49s-3.62,4.86-1.92,7.33a10.74,10.74,0,0,0,16.12,2.06A5.38,5.38,0,0,0,376.07,254.5Z" transform="translate(-158.78 -164.86)"/><path class="cls-12" d="M399.88,247.44l-7.68-1.1c-2.4-.34-4.84.59-5.54,3.14-.58,2.11.72,5.19,3.15,5.54l7.68,1.1c2.4.34,4.83-.6,5.53-3.15C403.6,250.86,402.3,247.78,399.88,247.44Z" transform="translate(-158.78 -164.86)"/><path class="cls-12" d="M422.85,242.09l-12.08-.92c-2.67-.21-5,2.42-5,5a5.06,5.06,0,0,0,5,5l12.08.93c2.68.2,5-2.43,5-5A5.06,5.06,0,0,0,422.85,242.09Z" transform="translate(-158.78 -164.86)"/><path class="cls-12" d="M427.05,248.12a5.64,5.64,0,0,0-2.54-3.3,5.57,5.57,0,0,0-4.24-.55,6,6,0,0,0-3.3,2.53l-2.19,3.29a5.51,5.51,0,0,0,6.22,8.1,6.11,6.11,0,0,0,3.3-2.53l2.19-3.3A5.6,5.6,0,0,0,427.05,248.12Z" transform="translate(-158.78 -164.86)"/><path class="cls-12" d="M404.22,260.8l-6.59-1.1c-2.21-.37-4.74.58-5.29,3-.47,2.07.63,4.89,3,5.29l6.59,1.1c2.21.36,4.74-.58,5.29-3C407.7,264,406.59,261.19,404.22,260.8Z" transform="translate(-158.78 -164.86)"/><path class="cls-12" d="M395.39,262.73c-5.68,0-5.68,8.82,0,8.82S401.08,262.73,395.39,262.73Z" transform="translate(-158.78 -164.86)"/><path class="cls-12" d="M384.42,267c-7.22,0-7.23,11.21,0,11.21S391.64,267,384.42,267Z" transform="translate(-158.78 -164.86)"/><path class="cls-12" d="M383.32,266.31c-8.13,0-8.15,12.64,0,12.64S391.46,266.31,383.32,266.31Z" transform="translate(-158.78 -164.86)"/><path class="cls-12" d="M389.71,265a6.11,6.11,0,0,0-4.27-1.77,6.47,6.47,0,0,0-4.28,1.77l-2.23,2.16a6,6,0,0,0,0,8.54,6.07,6.07,0,0,0,4.27,1.77,6.37,6.37,0,0,0,4.27-1.77l2.24-2.15a6,6,0,0,0,0-8.55Z" transform="translate(-158.78 -164.86)"/><path class="cls-12" d="M399.21,266.58a6.12,6.12,0,0,0-1.6-2.75l-1.26-1a6.26,6.26,0,0,0-3.15-.85h-1.1a4.67,4.67,0,0,0-2.41.54,5.64,5.64,0,0,0-3.29,3.29,4.67,4.67,0,0,0-.54,2.41c.07.55.15,1.11.22,1.66a6.2,6.2,0,0,0,1.61,2.75l1.26,1a6.2,6.2,0,0,0,3.15.85h1.1a7,7,0,0,0,4.41-1.83,4.59,4.59,0,0,0,1.29-2,4.71,4.71,0,0,0,.54-2.4Z" transform="translate(-158.78 -164.86)"/><path class="cls-12" d="M396.49,260.55a6.21,6.21,0,0,0-10.6,4.4v3.29a6.38,6.38,0,0,0,1.82,4.39,6.21,6.21,0,0,0,10.6-4.39V265A6.4,6.4,0,0,0,396.49,260.55Z" transform="translate(-158.78 -164.86)"/><path class="cls-12" d="M401.42,266.48a6.68,6.68,0,0,0-6.08-4.66,6.31,6.31,0,0,0-11.56,4.81c1.13,5.66,7.81,9.41,13.25,7.58C400.14,273.17,402.51,269.83,401.42,266.48Z" transform="translate(-158.78 -164.86)"/><path class="cls-12" d="M403.22,254.49a5.41,5.41,0,0,0-7.39-1.94,6.3,6.3,0,0,0-2.48,3.23l-2.22,5.48a5.42,5.42,0,0,0,.55,4.16,5.38,5.38,0,0,0,7.38,1.93,6.33,6.33,0,0,0,2.49-3.22c.74-1.83,1.47-3.66,2.21-5.48A5.37,5.37,0,0,0,403.22,254.49Z" transform="translate(-158.78 -164.86)"/><path class="cls-12" d="M404.42,241.4,400,240.3a5.08,5.08,0,0,0-2.7,9.79l4.39,1.09a5.07,5.07,0,1,0,2.7-9.78Z" transform="translate(-158.78 -164.86)"/><path class="cls-12" d="M421.25,233.5l-8.78-2.19c-3.26-.82-7.13,1.05-7.92,4.49a6.53,6.53,0,0,0,4.5,7.91l8.78,2.2c3.26.81,7.13-1,7.91-4.5A6.54,6.54,0,0,0,421.25,233.5Z" transform="translate(-158.78 -164.86)"/><path class="cls-12" d="M446.46,235a5.25,5.25,0,0,0-6.34-3.6l-9.88,2.19a5.16,5.16,0,0,0,2.74,10l9.88-2.2A5.21,5.21,0,0,0,446.46,235Z" transform="translate(-158.78 -164.86)"/><path class="cls-12" d="M451.52,232.77a5.25,5.25,0,0,0-3.12-2.4,5.69,5.69,0,0,0-4,.53L442.2,232a5.26,5.26,0,0,0-2.4,3.12,5.33,5.33,0,0,0,.52,4,5.27,5.27,0,0,0,3.12,2.39,5.68,5.68,0,0,0,4-.52l2.19-1.11a5.21,5.21,0,0,0,1.87-7.14Z" transform="translate(-158.78 -164.86)"/><path class="cls-12" d="M458,230.55a4.74,4.74,0,0,0-5.7-3.24l-4.43.89a4.66,4.66,0,0,0-3.24,5.71,4.75,4.75,0,0,0,5.7,3.24l4.43-.9A4.65,4.65,0,0,0,458,230.55Z" transform="translate(-158.78 -164.86)"/><path class="cls-12" d="M468,227.32l-8.78-2.19a4.88,4.88,0,0,0-2.59,9.4l8.78,2.19a4.88,4.88,0,1,0,2.59-9.4Z" transform="translate(-158.78 -164.86)"/><path class="cls-12" d="M475.59,228.86l-7.69-1.1c-2.36-.33-4.74.58-5.43,3.09-.57,2.07.71,5.09,3.08,5.43l7.69,1.1c2.36.34,4.74-.58,5.43-3.09C479.24,232.22,478,229.2,475.59,228.86Z" transform="translate(-158.78 -164.86)"/><path class="cls-12" d="M487.46,230a6.24,6.24,0,0,0-4.27-1.77H479.9a6.2,6.2,0,0,0-4.27,1.77,6,6,0,0,0,0,8.54,6.29,6.29,0,0,0,4.27,1.77h3.29a6.24,6.24,0,0,0,4.27-1.77,6,6,0,0,0,0-8.54Z" transform="translate(-158.78 -164.86)"/></g></g></g><g id="Layer_10_copy" data-name="Layer 10 copy"><path class="cls-1" d="M331.48,507.76l25,9.16L334.89,346.73C325.54,371,303.88,440.42,331.48,507.76Z" transform="translate(-158.78 -164.86)"/><path class="cls-1" d="M348.44,348l31.18,177.32L408.76,536C410.7,432.5,368.17,370.94,348.44,348Z" transform="translate(-158.78 -164.86)"/><path class="cls-4" d="M338.64,337.75s-1.53,3.21-3.75,9l21.64,170.19,23.09,8.43L348.44,348A114,114,0,0,0,338.64,337.75Z" transform="translate(-158.78 -164.86)"/></g><g id="Layer_6_copy_2" data-name="Layer 6 copy 2"><circle class="cls-13" cx="276.13" cy="208.81" r="164.42"/><circle class="cls-14" cx="298.43" cy="180.41" r="139.03"/></g></g></g></g></svg>